<mxfile host="app.diagrams.net" modified="2022-05-17T16:56:16.224Z" agent="5.0 (Macintosh; Intel Mac OS X 10_15_7) AppleWebKit/537.36 (KHTML, like Gecko) Chrome/101.0.4951.64 Safari/537.36" etag="YSQQdH8KsPQuHD7SK6T6" version="17.4.2" type="github">
  <diagram id="JV8tSt_FNG0pcoe7rwN4" name="Page-1">
    <mxGraphModel dx="940" dy="658" grid="0" gridSize="10" guides="1" tooltips="1" connect="1" arrows="1" fold="1" page="0" pageScale="1" pageWidth="827" pageHeight="1169" math="0" shadow="0">
      <root>
        <mxCell id="0" />
        <mxCell id="1" parent="0" />
        <mxCell id="_AuHTWiE68bdqg2kIRyq-23" value="Unified Store Transaction" style="rounded=1;whiteSpace=wrap;html=1;fillColor=#ffe6cc;strokeColor=#d79b00;verticalAlign=top;align=left;spacingLeft=20;" vertex="1" parent="1">
          <mxGeometry x="70" y="10" width="610" height="190" as="geometry" />
        </mxCell>
        <mxCell id="_AuHTWiE68bdqg2kIRyq-39" value="processScriptTransaction.withCustomHandler" style="rounded=1;whiteSpace=wrap;html=1;verticalAlign=top;fillColor=#fff2cc;strokeColor=#d6b656;align=left;spacingLeft=20;" vertex="1" parent="1">
          <mxGeometry x="70" y="270" width="610" height="200" as="geometry" />
        </mxCell>
        <mxCell id="_AuHTWiE68bdqg2kIRyq-62" value="Script Runtime" style="rounded=1;whiteSpace=wrap;html=1;verticalAlign=top;fillColor=#dae8fc;strokeColor=#6c8ebf;" vertex="1" parent="1">
          <mxGeometry x="80" y="320" width="140" height="130" as="geometry" />
        </mxCell>
        <mxCell id="_AuHTWiE68bdqg2kIRyq-61" value="Script Runtime" style="rounded=1;whiteSpace=wrap;html=1;verticalAlign=top;fillColor=#dae8fc;strokeColor=#6c8ebf;" vertex="1" parent="1">
          <mxGeometry x="80" y="50" width="140" height="130" as="geometry" />
        </mxCell>
        <mxCell id="_AuHTWiE68bdqg2kIRyq-10" style="edgeStyle=orthogonalEdgeStyle;orthogonalLoop=1;jettySize=auto;html=1;entryX=0;entryY=0.25;entryDx=0;entryDy=0;strokeColor=default;rounded=0;jumpStyle=none;" edge="1" parent="1" target="_AuHTWiE68bdqg2kIRyq-3">
          <mxGeometry relative="1" as="geometry">
            <mxPoint x="200" y="100" as="sourcePoint" />
          </mxGeometry>
        </mxCell>
        <mxCell id="_AuHTWiE68bdqg2kIRyq-13" style="edgeStyle=orthogonalEdgeStyle;rounded=0;jumpStyle=none;orthogonalLoop=1;jettySize=auto;html=1;entryX=0;entryY=0.75;entryDx=0;entryDy=0;strokeColor=default;" edge="1" parent="1" target="_AuHTWiE68bdqg2kIRyq-3">
          <mxGeometry relative="1" as="geometry">
            <mxPoint x="200" y="140" as="sourcePoint" />
          </mxGeometry>
        </mxCell>
        <mxCell id="_AuHTWiE68bdqg2kIRyq-3" value="" style="rounded=0;whiteSpace=wrap;html=1;fillColor=#d5e8d4;strokeColor=#82b366;" vertex="1" parent="1">
          <mxGeometry x="299" y="80" width="171" height="80" as="geometry" />
        </mxCell>
        <mxCell id="_AuHTWiE68bdqg2kIRyq-15" style="edgeStyle=orthogonalEdgeStyle;rounded=0;jumpStyle=none;orthogonalLoop=1;jettySize=auto;html=1;exitX=1;exitY=0.25;exitDx=0;exitDy=0;strokeColor=default;" edge="1" parent="1" source="_AuHTWiE68bdqg2kIRyq-9">
          <mxGeometry relative="1" as="geometry">
            <mxPoint x="520" y="105" as="targetPoint" />
          </mxGeometry>
        </mxCell>
        <mxCell id="_AuHTWiE68bdqg2kIRyq-17" value="dispatch" style="edgeLabel;html=1;align=center;verticalAlign=middle;resizable=0;points=[];" vertex="1" connectable="0" parent="_AuHTWiE68bdqg2kIRyq-15">
          <mxGeometry x="-0.386" y="1" relative="1" as="geometry">
            <mxPoint x="37" as="offset" />
          </mxGeometry>
        </mxCell>
        <mxCell id="_AuHTWiE68bdqg2kIRyq-16" style="edgeStyle=orthogonalEdgeStyle;rounded=0;jumpStyle=none;orthogonalLoop=1;jettySize=auto;html=1;exitX=1;exitY=0.75;exitDx=0;exitDy=0;strokeColor=default;" edge="1" parent="1" source="_AuHTWiE68bdqg2kIRyq-9">
          <mxGeometry relative="1" as="geometry">
            <mxPoint x="520" y="135" as="targetPoint" />
          </mxGeometry>
        </mxCell>
        <mxCell id="_AuHTWiE68bdqg2kIRyq-19" value="getState" style="edgeLabel;html=1;align=center;verticalAlign=middle;resizable=0;points=[];" vertex="1" connectable="0" parent="_AuHTWiE68bdqg2kIRyq-16">
          <mxGeometry x="-0.336" y="-1" relative="1" as="geometry">
            <mxPoint x="33" as="offset" />
          </mxGeometry>
        </mxCell>
        <mxCell id="_AuHTWiE68bdqg2kIRyq-9" value="Unified&lt;br&gt;Store" style="rounded=1;whiteSpace=wrap;html=1;fillColor=#008a00;strokeColor=#005700;fontColor=#ffffff;" vertex="1" parent="1">
          <mxGeometry x="310" y="90" width="60" height="60" as="geometry" />
        </mxCell>
        <mxCell id="_AuHTWiE68bdqg2kIRyq-12" value="dispatch" style="text;html=1;align=center;verticalAlign=middle;resizable=0;points=[];autosize=1;strokeColor=none;fillColor=none;" vertex="1" parent="1">
          <mxGeometry x="210" y="80" width="60" height="20" as="geometry" />
        </mxCell>
        <mxCell id="_AuHTWiE68bdqg2kIRyq-14" value="getState" style="text;html=1;align=center;verticalAlign=middle;resizable=0;points=[];autosize=1;strokeColor=none;fillColor=none;" vertex="1" parent="1">
          <mxGeometry x="210" y="120" width="60" height="20" as="geometry" />
        </mxCell>
        <mxCell id="_AuHTWiE68bdqg2kIRyq-20" value="Store Entity Plugins" style="rounded=0;whiteSpace=wrap;html=1;" vertex="1" parent="1">
          <mxGeometry x="520" y="73" width="120" height="80" as="geometry" />
        </mxCell>
        <mxCell id="_AuHTWiE68bdqg2kIRyq-24" value="StoreWrapper" style="text;html=1;align=center;verticalAlign=middle;resizable=0;points=[];autosize=1;strokeColor=none;fillColor=none;" vertex="1" parent="1">
          <mxGeometry x="380" y="140" width="90" height="20" as="geometry" />
        </mxCell>
        <mxCell id="_AuHTWiE68bdqg2kIRyq-26" style="edgeStyle=orthogonalEdgeStyle;orthogonalLoop=1;jettySize=auto;html=1;entryX=0;entryY=0.25;entryDx=0;entryDy=0;strokeColor=default;rounded=0;jumpStyle=none;" edge="1" parent="1" target="_AuHTWiE68bdqg2kIRyq-29">
          <mxGeometry relative="1" as="geometry">
            <mxPoint x="200" y="370" as="sourcePoint" />
          </mxGeometry>
        </mxCell>
        <mxCell id="_AuHTWiE68bdqg2kIRyq-27" style="edgeStyle=orthogonalEdgeStyle;rounded=0;jumpStyle=none;orthogonalLoop=1;jettySize=auto;html=1;entryX=0;entryY=0.75;entryDx=0;entryDy=0;strokeColor=default;" edge="1" parent="1" target="_AuHTWiE68bdqg2kIRyq-29">
          <mxGeometry relative="1" as="geometry">
            <mxPoint x="200" y="410" as="sourcePoint" />
          </mxGeometry>
        </mxCell>
        <mxCell id="_AuHTWiE68bdqg2kIRyq-28" value="Script API&lt;br&gt;Implementations" style="rounded=0;whiteSpace=wrap;html=1;horizontal=1;verticalAlign=middle;" vertex="1" parent="1">
          <mxGeometry x="90" y="342" width="100" height="80" as="geometry" />
        </mxCell>
        <mxCell id="_AuHTWiE68bdqg2kIRyq-29" value="" style="rounded=0;whiteSpace=wrap;html=1;fillColor=#d5e8d4;strokeColor=#82b366;" vertex="1" parent="1">
          <mxGeometry x="299" y="341" width="171" height="98" as="geometry" />
        </mxCell>
        <mxCell id="_AuHTWiE68bdqg2kIRyq-32" style="edgeStyle=orthogonalEdgeStyle;rounded=0;jumpStyle=none;orthogonalLoop=1;jettySize=auto;html=1;exitX=1;exitY=0.75;exitDx=0;exitDy=0;strokeColor=default;" edge="1" parent="1" source="_AuHTWiE68bdqg2kIRyq-34">
          <mxGeometry relative="1" as="geometry">
            <mxPoint x="520" y="405" as="targetPoint" />
          </mxGeometry>
        </mxCell>
        <mxCell id="_AuHTWiE68bdqg2kIRyq-33" value="getState" style="edgeLabel;html=1;align=center;verticalAlign=middle;resizable=0;points=[];" vertex="1" connectable="0" parent="_AuHTWiE68bdqg2kIRyq-32">
          <mxGeometry x="-0.336" y="-1" relative="1" as="geometry">
            <mxPoint x="53" y="-3" as="offset" />
          </mxGeometry>
        </mxCell>
        <mxCell id="_AuHTWiE68bdqg2kIRyq-34" value="Unified&lt;br&gt;Store" style="rounded=1;whiteSpace=wrap;html=1;fillColor=#008a00;strokeColor=#005700;fontColor=#ffffff;" vertex="1" parent="1">
          <mxGeometry x="310" y="360" width="60" height="60" as="geometry" />
        </mxCell>
        <mxCell id="_AuHTWiE68bdqg2kIRyq-35" value="dispatch" style="text;html=1;align=center;verticalAlign=middle;resizable=0;points=[];autosize=1;strokeColor=none;fillColor=none;" vertex="1" parent="1">
          <mxGeometry x="210" y="350" width="60" height="20" as="geometry" />
        </mxCell>
        <mxCell id="_AuHTWiE68bdqg2kIRyq-36" value="getState" style="text;html=1;align=center;verticalAlign=middle;resizable=0;points=[];autosize=1;strokeColor=none;fillColor=none;" vertex="1" parent="1">
          <mxGeometry x="210" y="390" width="60" height="20" as="geometry" />
        </mxCell>
        <mxCell id="_AuHTWiE68bdqg2kIRyq-37" value="Store Entity Plugins" style="rounded=0;whiteSpace=wrap;html=1;" vertex="1" parent="1">
          <mxGeometry x="520" y="341" width="120" height="80" as="geometry" />
        </mxCell>
        <mxCell id="_AuHTWiE68bdqg2kIRyq-38" value="StoreWrapper" style="text;html=1;align=center;verticalAlign=middle;resizable=0;points=[];autosize=1;strokeColor=none;fillColor=none;" vertex="1" parent="1">
          <mxGeometry x="380" y="419" width="90" height="20" as="geometry" />
        </mxCell>
        <mxCell id="_AuHTWiE68bdqg2kIRyq-45" style="edgeStyle=orthogonalEdgeStyle;rounded=0;jumpStyle=none;orthogonalLoop=1;jettySize=auto;html=1;exitX=0.5;exitY=1;exitDx=0;exitDy=0;entryX=0.5;entryY=0;entryDx=0;entryDy=0;strokeColor=default;dashed=1;" edge="1" parent="1" source="_AuHTWiE68bdqg2kIRyq-40" target="_AuHTWiE68bdqg2kIRyq-44">
          <mxGeometry relative="1" as="geometry" />
        </mxCell>
        <mxCell id="_AuHTWiE68bdqg2kIRyq-40" value="" style="ellipse;whiteSpace=wrap;html=1;aspect=fixed;fillColor=#0050ef;fontColor=#ffffff;strokeColor=#001DBC;" vertex="1" parent="1">
          <mxGeometry x="413" y="310" width="20" height="20" as="geometry" />
        </mxCell>
        <mxCell id="_AuHTWiE68bdqg2kIRyq-47" style="edgeStyle=orthogonalEdgeStyle;rounded=0;jumpStyle=none;orthogonalLoop=1;jettySize=auto;html=1;exitX=1;exitY=0.5;exitDx=0;exitDy=0;strokeColor=default;" edge="1" parent="1" source="_AuHTWiE68bdqg2kIRyq-44">
          <mxGeometry relative="1" as="geometry">
            <mxPoint x="520" y="370" as="targetPoint" />
          </mxGeometry>
        </mxCell>
        <mxCell id="_AuHTWiE68bdqg2kIRyq-48" value="dispatch" style="edgeLabel;html=1;align=center;verticalAlign=middle;resizable=0;points=[];" vertex="1" connectable="0" parent="_AuHTWiE68bdqg2kIRyq-47">
          <mxGeometry x="-0.16" y="1" relative="1" as="geometry">
            <mxPoint x="2" y="1" as="offset" />
          </mxGeometry>
        </mxCell>
        <mxCell id="_AuHTWiE68bdqg2kIRyq-44" value="" style="ellipse;whiteSpace=wrap;html=1;aspect=fixed;fillColor=#0050ef;fontColor=#ffffff;strokeColor=#001DBC;" vertex="1" parent="1">
          <mxGeometry x="413" y="360" width="20" height="20" as="geometry" />
        </mxCell>
        <mxCell id="_AuHTWiE68bdqg2kIRyq-53" style="edgeStyle=orthogonalEdgeStyle;rounded=0;jumpStyle=none;orthogonalLoop=1;jettySize=auto;html=1;entryX=0.5;entryY=0;entryDx=0;entryDy=0;strokeColor=default;dashed=1;" edge="1" parent="1" source="_AuHTWiE68bdqg2kIRyq-51" target="_AuHTWiE68bdqg2kIRyq-52">
          <mxGeometry relative="1" as="geometry" />
        </mxCell>
        <mxCell id="_AuHTWiE68bdqg2kIRyq-51" value="" style="ellipse;whiteSpace=wrap;html=1;aspect=fixed;fillColor=#fa6800;fontColor=#000000;strokeColor=#C73500;" vertex="1" parent="1">
          <mxGeometry x="380" y="310" width="20" height="20" as="geometry" />
        </mxCell>
        <mxCell id="_AuHTWiE68bdqg2kIRyq-54" style="edgeStyle=orthogonalEdgeStyle;rounded=0;jumpStyle=none;orthogonalLoop=1;jettySize=auto;html=1;exitX=0.5;exitY=1;exitDx=0;exitDy=0;strokeColor=default;" edge="1" parent="1" source="_AuHTWiE68bdqg2kIRyq-52">
          <mxGeometry relative="1" as="geometry">
            <mxPoint x="390" y="405" as="targetPoint" />
            <Array as="points">
              <mxPoint x="390" y="405" />
            </Array>
          </mxGeometry>
        </mxCell>
        <mxCell id="_AuHTWiE68bdqg2kIRyq-52" value="" style="ellipse;whiteSpace=wrap;html=1;aspect=fixed;fillColor=#fa6800;fontColor=#000000;strokeColor=#C73500;" vertex="1" parent="1">
          <mxGeometry x="380" y="360" width="20" height="20" as="geometry" />
        </mxCell>
        <mxCell id="_AuHTWiE68bdqg2kIRyq-57" value="Store Entity Plugins" style="rounded=0;whiteSpace=wrap;html=1;" vertex="1" parent="1">
          <mxGeometry x="530" y="83" width="120" height="80" as="geometry" />
        </mxCell>
        <mxCell id="_AuHTWiE68bdqg2kIRyq-58" value="Store Entity Plugins" style="rounded=0;whiteSpace=wrap;html=1;" vertex="1" parent="1">
          <mxGeometry x="540" y="93" width="120" height="80" as="geometry" />
        </mxCell>
        <mxCell id="_AuHTWiE68bdqg2kIRyq-55" value="getState" style="text;html=1;resizable=0;autosize=1;align=center;verticalAlign=middle;points=[];fillColor=none;strokeColor=none;rounded=0;" vertex="1" parent="1">
          <mxGeometry x="320" y="310" width="60" height="20" as="geometry" />
        </mxCell>
        <mxCell id="_AuHTWiE68bdqg2kIRyq-56" value="dispatch" style="text;html=1;resizable=0;autosize=1;align=center;verticalAlign=middle;points=[];fillColor=none;strokeColor=none;rounded=0;" vertex="1" parent="1">
          <mxGeometry x="434" y="310" width="60" height="20" as="geometry" />
        </mxCell>
        <mxCell id="_AuHTWiE68bdqg2kIRyq-59" value="Store Entity Plugins" style="rounded=0;whiteSpace=wrap;html=1;" vertex="1" parent="1">
          <mxGeometry x="530" y="351" width="120" height="80" as="geometry" />
        </mxCell>
        <mxCell id="_AuHTWiE68bdqg2kIRyq-60" value="Store Entity Plugins" style="rounded=0;whiteSpace=wrap;html=1;" vertex="1" parent="1">
          <mxGeometry x="540" y="361" width="120" height="80" as="geometry" />
        </mxCell>
        <mxCell id="_AuHTWiE68bdqg2kIRyq-64" value="Script API&lt;br&gt;Implementations" style="rounded=0;whiteSpace=wrap;html=1;horizontal=1;verticalAlign=middle;" vertex="1" parent="1">
          <mxGeometry x="90" y="70" width="100" height="80" as="geometry" />
        </mxCell>
        <mxCell id="_AuHTWiE68bdqg2kIRyq-2" value="Script API&lt;br&gt;Implementations" style="rounded=0;whiteSpace=wrap;html=1;horizontal=1;verticalAlign=middle;" vertex="1" parent="1">
          <mxGeometry x="100" y="80" width="100" height="80" as="geometry" />
        </mxCell>
        <mxCell id="_AuHTWiE68bdqg2kIRyq-63" value="Script API&lt;br&gt;Implementations" style="rounded=0;whiteSpace=wrap;html=1;horizontal=1;verticalAlign=middle;" vertex="1" parent="1">
          <mxGeometry x="110" y="90" width="100" height="80" as="geometry" />
        </mxCell>
        <mxCell id="_AuHTWiE68bdqg2kIRyq-65" value="Script API&lt;br&gt;Implementations" style="rounded=0;whiteSpace=wrap;html=1;horizontal=1;verticalAlign=middle;" vertex="1" parent="1">
          <mxGeometry x="100" y="352" width="100" height="80" as="geometry" />
        </mxCell>
        <mxCell id="_AuHTWiE68bdqg2kIRyq-66" value="Script API&lt;br&gt;Implementations" style="rounded=0;whiteSpace=wrap;html=1;horizontal=1;verticalAlign=middle;" vertex="1" parent="1">
          <mxGeometry x="110" y="362" width="100" height="80" as="geometry" />
        </mxCell>
      </root>
    </mxGraphModel>
  </diagram>
</mxfile>
